<svg width="47" height="47" viewBox="0 0 47 47" fill="none" xmlns="http://www.w3.org/2000/svg">
<path d="M23.5 47C10.5213 47 2.22016e-06 36.4787 2.78748e-06 23.5C3.3548e-06 10.5213 10.5213 -1.59453e-06 23.5 -1.02722e-06C36.4787 -4.59901e-07 47 10.5213 47 23.5C47 36.4787 36.4787 47 23.5 47Z" fill="white"/>
<path d="M13.0547 30H11.7322L16.7589 16.1818H18.1083L23.1349 30H21.8125L17.4808 17.8214H17.3864L13.0547 30ZM14.006 24.7035H20.8611V25.837H14.006V24.7035Z" fill="black"/>
<path d="M25.5032 30V16.1818H33.4986V17.3153H26.7649V22.5174H32.8711V23.6509H26.7649V30H25.5032Z" fill="black"/>
</svg>
